<mxfile host="app.diagrams.net" modified="2022-08-23T04:09:04.492Z" agent="5.0 (Macintosh; Intel Mac OS X 10_15_7) AppleWebKit/605.1.15 (KHTML, like Gecko) Version/15.6 Safari/605.1.15" etag="HoDRiCxcsXZt9JZVUoL1" version="20.2.6" type="github">
  <diagram id="UNgkER5yv2YXViN2iCL1" name="Page-1">
    <mxGraphModel dx="1018" dy="597" grid="1" gridSize="10" guides="1" tooltips="1" connect="1" arrows="1" fold="1" page="1" pageScale="1" pageWidth="827" pageHeight="1169" math="0" shadow="0">
      <root>
        <mxCell id="0" />
        <mxCell id="1" parent="0" />
        <mxCell id="trksypPlOKVJ9yWh8cVp-2" value="Inicio" style="strokeWidth=2;html=1;shape=mxgraph.flowchart.terminator;whiteSpace=wrap;" vertex="1" parent="1">
          <mxGeometry x="240" y="130" width="100" height="40" as="geometry" />
        </mxCell>
        <mxCell id="trksypPlOKVJ9yWh8cVp-3" value="&lt;span style=&quot;text-align: start; font-size: medium;&quot;&gt;nota1, nota2&lt;/span&gt;" style="shape=parallelogram;html=1;strokeWidth=2;perimeter=parallelogramPerimeter;whiteSpace=wrap;rounded=1;arcSize=12;size=0.23;" vertex="1" parent="1">
          <mxGeometry x="160" y="195" width="260" height="35" as="geometry" />
        </mxCell>
        <mxCell id="trksypPlOKVJ9yWh8cVp-4" value="promedio" style="strokeWidth=2;html=1;shape=mxgraph.flowchart.document2;whiteSpace=wrap;size=0.25;" vertex="1" parent="1">
          <mxGeometry x="240" y="340" width="100" height="50" as="geometry" />
        </mxCell>
        <mxCell id="trksypPlOKVJ9yWh8cVp-5" value="Fin" style="strokeWidth=2;html=1;shape=mxgraph.flowchart.terminator;whiteSpace=wrap;" vertex="1" parent="1">
          <mxGeometry x="240" y="420" width="100" height="40" as="geometry" />
        </mxCell>
        <mxCell id="trksypPlOKVJ9yWh8cVp-6" value="" style="endArrow=classic;html=1;rounded=0;exitX=0.5;exitY=1;exitDx=0;exitDy=0;exitPerimeter=0;entryX=0.5;entryY=0;entryDx=0;entryDy=0;" edge="1" parent="1" source="trksypPlOKVJ9yWh8cVp-2" target="trksypPlOKVJ9yWh8cVp-3">
          <mxGeometry width="50" height="50" relative="1" as="geometry">
            <mxPoint x="266" y="400" as="sourcePoint" />
            <mxPoint x="316" y="350" as="targetPoint" />
          </mxGeometry>
        </mxCell>
        <mxCell id="trksypPlOKVJ9yWh8cVp-7" value="" style="endArrow=classic;html=1;rounded=0;exitX=0.5;exitY=1;exitDx=0;exitDy=0;entryX=0.5;entryY=0;entryDx=0;entryDy=0;" edge="1" parent="1" source="trksypPlOKVJ9yWh8cVp-3" target="trksypPlOKVJ9yWh8cVp-12">
          <mxGeometry width="50" height="50" relative="1" as="geometry">
            <mxPoint x="436" y="260" as="sourcePoint" />
            <mxPoint x="290" y="280" as="targetPoint" />
          </mxGeometry>
        </mxCell>
        <mxCell id="trksypPlOKVJ9yWh8cVp-8" value="" style="endArrow=classic;html=1;rounded=0;entryX=0.5;entryY=0;entryDx=0;entryDy=0;entryPerimeter=0;" edge="1" parent="1" source="trksypPlOKVJ9yWh8cVp-4" target="trksypPlOKVJ9yWh8cVp-5">
          <mxGeometry width="50" height="50" relative="1" as="geometry">
            <mxPoint x="266" y="640" as="sourcePoint" />
            <mxPoint x="296" y="460" as="targetPoint" />
          </mxGeometry>
        </mxCell>
        <mxCell id="trksypPlOKVJ9yWh8cVp-9" value="&lt;meta charset=&quot;utf-8&quot;&gt;&lt;div style=&quot;font-style: normal; font-variant-caps: normal; font-weight: normal; letter-spacing: normal; text-align: start; text-indent: 0px; text-transform: none; word-spacing: 0px; -webkit-text-stroke-width: 0px; text-decoration: none; color: rgb(171, 178, 191); background-color: rgb(40, 44, 52); font-family: &amp;quot;Fira Code&amp;quot;, &amp;quot;Menlo for Powerline&amp;quot;, Menlo, Monaco, &amp;quot;Courier New&amp;quot;, monospace; font-size: 12px; line-height: 18px;&quot;&gt;&lt;div&gt;&lt;span style=&quot;color: rgb(127, 132, 142); font-style: italic;&quot;&gt;DeclaraciÃ³n de variables e ingrese de datos&lt;/span&gt;&lt;/div&gt;&lt;/div&gt;" style="text;whiteSpace=wrap;html=1;" vertex="1" parent="1">
          <mxGeometry x="430" y="192.5" width="340" height="40" as="geometry" />
        </mxCell>
        <mxCell id="trksypPlOKVJ9yWh8cVp-10" value="&lt;div style=&quot;font-style: normal; font-variant-caps: normal; font-weight: normal; letter-spacing: normal; text-align: start; text-indent: 0px; text-transform: none; word-spacing: 0px; -webkit-text-stroke-width: 0px; text-decoration: none; color: rgb(171, 178, 191); background-color: rgb(40, 44, 52); font-family: &amp;quot;Fira Code&amp;quot;, &amp;quot;Menlo for Powerline&amp;quot;, Menlo, Monaco, &amp;quot;Courier New&amp;quot;, monospace; font-size: 12px; line-height: 18px;&quot;&gt;&lt;div&gt;&lt;span style=&quot;color: rgb(127, 132, 142); font-style: italic;&quot;&gt;Mostrar resultados al usuario&lt;/span&gt;&lt;/div&gt;&lt;/div&gt;" style="text;whiteSpace=wrap;html=1;" vertex="1" parent="1">
          <mxGeometry x="380" y="345" width="240" height="40" as="geometry" />
        </mxCell>
        <mxCell id="trksypPlOKVJ9yWh8cVp-11" style="edgeStyle=orthogonalEdgeStyle;rounded=0;orthogonalLoop=1;jettySize=auto;html=1;exitX=0.5;exitY=1;exitDx=0;exitDy=0;entryX=0.5;entryY=0;entryDx=0;entryDy=0;entryPerimeter=0;" edge="1" parent="1" source="trksypPlOKVJ9yWh8cVp-12" target="trksypPlOKVJ9yWh8cVp-4">
          <mxGeometry relative="1" as="geometry" />
        </mxCell>
        <mxCell id="trksypPlOKVJ9yWh8cVp-12" value="&lt;div&gt;promedio = (nota1+nota2)/2&lt;/div&gt;" style="rounded=1;whiteSpace=wrap;html=1;absoluteArcSize=1;arcSize=14;strokeWidth=2;" vertex="1" parent="1">
          <mxGeometry x="167.5" y="260" width="245" height="50" as="geometry" />
        </mxCell>
        <mxCell id="trksypPlOKVJ9yWh8cVp-13" value="&lt;div style=&quot;font-style: normal; font-variant-caps: normal; font-weight: normal; letter-spacing: normal; text-align: start; text-indent: 0px; text-transform: none; word-spacing: 0px; -webkit-text-stroke-width: 0px; text-decoration: none; color: rgb(171, 178, 191); background-color: rgb(40, 44, 52); font-family: &amp;quot;Fira Code&amp;quot;, &amp;quot;Menlo for Powerline&amp;quot;, Menlo, Monaco, &amp;quot;Courier New&amp;quot;, monospace; font-size: 12px; line-height: 18px;&quot;&gt;&lt;div&gt;&lt;span style=&quot;color: rgb(127, 132, 142); font-style: italic;&quot;&gt;Desarrollo de operaciones&lt;/span&gt;&lt;/div&gt;&lt;/div&gt;" style="text;whiteSpace=wrap;html=1;" vertex="1" parent="1">
          <mxGeometry x="430" y="265" width="210" height="40" as="geometry" />
        </mxCell>
      </root>
    </mxGraphModel>
  </diagram>
</mxfile>
